<svg xmlns="http://www.w3.org/2000/svg" xmlns:svg="http://www.w3.org/2000/svg" id="svg64" width="208" height="208" version="1.1" viewBox="0 0 208 208"><g id="layer1"><circle style="display:inline;fill:#fff;stroke-width:1.05464" id="path167" cx="104" cy="104" r="104"/></g><g id="g70"><path style="fill:#23696f;stroke:none;stroke-width:.32" id="path232" d="m 101.76,12.935808 c -8.05504,1.0576 -15.80448,1.537056 -23.68,3.934816 C 58.11808,22.948352 40.46816,36.4288 28.965184,53.76 18.589344,69.39296 12.175872,89.92192 13.46864,108.8 c 2.6168,38.2128 30.18512,73.70208 67.49136,83.79168 11.69536,3.16288 24.21728,3.57024 36.16,1.8768 44.3968,-6.2944 78.87296,-49.91936 75.81152,-94.62848 C 190.28896,61.25472 166.03328,27.055296 128,16.275072 119.96896,13.998688 110.13056,11.836736 101.76,12.935808 m -2.88,2.835552 c 10.09248,-1.190784 20.76192,0.940352 30.4,3.748896 9.3568,2.726592 18.54016,7.256448 26.24,13.255424 8.8176,6.87008 16.29856,15.28768 22.14048,24.82432 20.89728,34.11328 14.4176,78.98016 -11.8464,108.16 -6.55584,7.28384 -14.65504,13.29952 -23.41408,17.67904 -8.69824,4.34912 -18.13664,7.46528 -27.84,8.50784 -12.35104,1.32704 -24.55744,0.55008 -36.48,-3.15488 C 67.32384,185.44928 57.4912,179.86432 48.96,172.5216 36.92064,162.16 26.948384,148.73472 21.457024,133.76 7.862816,96.68864 22.658848,53.816 54.72,31.270624 68.01344,21.922752 82.9696,17.648672 98.88,15.77136 M 97.6,19.015808 C 82.48032,21.00688 68.19872,25.196736 55.68,34.28864 23.98272,57.30944 10.12288,100.15744 25.7368,136.64 c 6.000192,14.01984 15.62096,25.83808 27.3832,35.39552 8.56704,6.96128 18.47104,11.91552 29.12,14.79616 10.76192,2.91104 22.26912,3.36128 33.28,1.87808 9.48352,-1.27776 18.792,-4.29312 27.2,-8.84416 8.24896,-4.46496 15.72864,-10.34336 22.0256,-17.3056 C 198.05248,125.73408 193.744,65.26752 153.6,35.15936 145.57216,29.138528 136.12448,24.410592 126.4,21.878784 117.19872,19.483168 107.14304,17.759136 97.6,19.015808 m 0.64,2.515552 c 5.7536,-0.678848 11.90016,-0.03277 17.6,0.781984 41.0224,5.863904 70.576,44.040896 68.78752,84.886656 -1.33408,30.46464 -19.74752,59.75712 -47.66752,72.54112 -8.10528,3.71136 -16.7824,5.68384 -25.6,6.72736 C 64.91904,191.96608 19.718496,149.94976 21.772608,103.04 23.081248,73.1536 39.42944,45.4672 65.92,31.138784 75.96864,25.703488 86.96864,22.861312 98.24,21.53136 M 55.68,122.24 c 0.61664,-2.248 -0.83968,-4.27424 -1.46432,-6.4 -1.09216,-3.71808 -1.95584,-7.62976 -2.05088,-11.52 -0.46912,-19.14528 9.85088,-37.8176 26.5552,-47.35968 5.52448,-3.15584 11.31424,-5.23136 17.6,-6.21152 0.65952,-0.10272 5.94528,-0.2208 5.06368,-1.6144 -0.82272,-1.3008 -4.81792,-0.17952 -6.02368,0.0144 -6.04992,0.97184 -11.93888,3.0096 -17.28,6.02688 -17.4176,9.84 -27.52128,28.43168 -27.52,48.18432 3.2e-4,4.72512 0.98848,9.23776 2.28512,13.76 0.54496,1.90016 0.97088,4.15104 2.83488,5.12 m 98.88,-0.32 c 1.81024,-0.70976 2.13664,-3.07936 2.64928,-4.8 1.39136,-4.66944 2.15072,-9.5344 2.15072,-14.4 0,-20.29376 -11.81024,-39.096 -30.08,-48.07808 -5.15008,-2.53184 -10.62208,-4.5008 -16.32,-5.32 -1.18336,-0.16992 -4.6112,-1.25472 -5.49376,-0.18528 -1.14304,1.38528 3.89408,1.71584 4.53376,1.8224 5.76416,0.96032 11.41568,2.6336 16.64,5.28288 16.91072,8.57504 29.12,26.33568 29.12,45.51808 0,4.37216 -0.50464,8.57216 -1.64832,12.8 -0.61088,2.25792 -2.17984,5.05248 -1.55168,7.36 M 97.28,113.6 c -5.04256,-6.13216 -8.24768,-12.76032 -14.72,-17.784 -2.30752,-1.79104 -5.232,-4.13856 -8.32,-3.656 1.46464,10.87648 7.94496,23.16096 15.04,31.36 -2.30752,-1.0912 -4.31328,-3.1056 -6.72,-3.93664 -5.88992,-2.03328 -13.22528,-0.77664 -18.56,2.11552 -2.21248,1.19936 -4.33344,2.69216 -6.39392,4.13536 -0.64,0.44864 -1.86528,1.36608 -1.25856,2.29312 0.87584,1.33824 6.6544,1.68128 8.29248,2.30848 5.31808,2.03616 9.90336,5.33536 15.68,6.11392 3.06688,0.41312 5.88928,0.2768 8.96,0.0614 1.47744,-0.10336 3.344,-0.73888 4.79968,-0.31936 4.13792,1.19264 5.51264,9.03136 10.55552,8.29952 3.58304,-0.52 5.52544,-6.22816 8.3536,-8.0736 2.06208,-1.3456 7.71104,0.12224 10.2112,0.12224 8.65216,0 14.71328,-4.3792 22.72,-6.67488 1.4496,-0.41568 7.34368,-0.78176 7.94368,-2.0656 0.90496,-1.93632 -5.94816,-5.18656 -7.30368,-5.92256 -9.32096,-5.06016 -18.63232,-2.67424 -27.84,0.90304 4.80352,-6.48096 8.50528,-12.96704 11.45504,-20.48 1.2576,-3.20288 2.87136,-7.10432 2.94496,-10.56 -3.29504,0.07712 -6.10464,2.19616 -8.64,4.12768 -6.20096,4.72448 -11.39456,11.05344 -14.4,18.27232 -0.48832,-2.28352 0.73088,-5.0944 1.21248,-7.36 1.31648,-6.1904 3.28096,-12.3488 4.39872,-18.56 1.70688,-9.48224 -1.33504,-17.21408 -5.83232,-25.28 -1.33088,-2.38688 -3.21344,-7.98304 -5.60096,-9.35936 -1.3232,-0.76288 -2.24224,1.44096 -2.71904,2.31936 -1.86752,3.44032 -3.77792,6.8416 -5.72224,10.24 -3.7776,6.6032 -5.74592,14.76768 -4.8448,22.4 0.9984,8.45792 5.16928,16.5088 6.30816,24.96 M 104,58.56 c 3.232,5.26304 7.5584,11.13824 8.816,17.28 1.59104,7.76832 -0.90368,15.85856 -2.77664,23.36 -1.9904,7.9728 -3.49152,16.09056 -5.71936,24 h -0.64 C 100.31904,114.48704 97.88768,105.11104 95.86432,96 94.46368,89.69472 93.09696,83.56736 94.46752,77.12 95.93536,70.21504 100.43136,64.83232 103.36,58.56 H 104 M 78.72,96.32 c 8.25568,5.93568 12.6144,14.42368 18.03008,22.72 2.63616,4.0384 5.96928,7.80928 5.96992,12.8 C 93.28896,126.4144 86.568,116.21536 82.16608,106.56 81.02336,104.0528 78.14624,99.0528 78.72,96.32 m 50.24,0 c -0.27584,2.75168 -1.6832,5.47168 -2.74432,8 -3.11168,7.41536 -7.0976,13.93696 -12.58688,19.84 -2.14272,2.304 -4.91712,6.16672 -8.0288,7.04 -0.4848,-3.92608 2.4176,-7.22208 4.23392,-10.56 4.9328,-9.06592 9.76832,-18.98816 19.12608,-24.32 m -84.46592,5.68352 c -2.78816,1.02208 -1.20768,5.38176 1.57984,4.36192 2.82624,-1.03424 1.16448,-5.36832 -1.57984,-4.36192 m 118.0848,0.0854 c -2.63296,1.43616 -0.46176,5.42112 2.20256,4.048 2.8432,-1.46496 0.59488,-5.57408 -2.20256,-4.048 M 92.8,133.44 c -8.74688,2.08256 -16.22432,-0.5424 -24,-4.1952 -2.208,-1.03744 -5.07968,-1.44608 -7.04,-2.8448 9.10336,-6.13632 19.31136,-6.82784 27.1712,1.6 1.50368,1.61216 3.08096,3.3616 3.8688,5.44 m 55.36,-6.72 c -4.72896,0.63744 -8.77824,3.21632 -13.12,4.97504 -3.6608,1.48288 -7.3088,1.97888 -11.2,2.33024 -1.26144,0.11424 -7.63904,0.29856 -8.26848,-0.77824 -0.55552,-0.9504 0.8992,-2.33248 1.39552,-3.00704 1.88256,-2.55808 2.92064,-4.61984 5.91296,-6.02656 6.88992,-3.23872 19.96256,-4.3792 25.28,2.50656 m -29.44,-3.84 -0.32,0.32 0.32,-0.32 m -26.56,3.84 7.04,6.0496 3.51104,2.94016 L 103.04,140.8 94.33376,130.88 92.16,126.72 m 23.68,0 -6.072,8.64 -3.848,4.48 c 0,-1.2912 -0.26432,-2.9328 0.19296,-4.15872 1.07232,-2.8736 6.976,-7.68032 9.72704,-8.96128 m -68.8,32.32 v 0.32 l 113.28,-0.32 c -2.736,-1.15872 -6.64,-1.01632 -9.6,-1.33312 -6.7152,-0.71904 -13.43072,-1.11456 -20.16,-1.57568 -16.98784,-1.1632 -34.19424,-1.4272 -51.2,-0.2624 -10.7216,0.73408 -21.5904,2.94976 -32.32,3.1712 z"/></g></svg>